<svg width="36" height="35" viewBox="0 0 36 35" fill="none" xmlns="http://www.w3.org/2000/svg">
<g id="Icon / mangnifyingglass">
<path id="Icon" d="M14.9083 28.3167C17.9646 28.3167 20.8184 27.3225 23.1382 25.6654L31.8652 34.3924C32.2703 34.7975 32.8042 35 33.3565 35C34.5533 35 35.4186 34.0794 35.4186 32.9011C35.4186 32.3488 35.2345 31.8332 34.8294 31.4282L26.1577 22.738C27.9804 20.3446 29.0667 17.3803 29.0667 14.1583C29.0667 6.37033 22.6963 0 14.9083 0C7.10192 0 0.75 6.37033 0.75 14.1583C0.75 21.9463 7.10192 28.3167 14.9083 28.3167ZM14.9083 25.2604C8.81418 25.2604 3.80629 20.2341 3.80629 14.1583C3.80629 8.08259 8.81418 3.05629 14.9083 3.05629C20.9841 3.05629 26.0104 8.08259 26.0104 14.1583C26.0104 20.2341 20.9841 25.2604 14.9083 25.2604Z" fill="#8E8E93"/>
</g>
</svg>
