<svg width="21" height="21" viewBox="0 0 21 21" fill="none" xmlns="http://www.w3.org/2000/svg">
<g id="material-symbols:location-on">
<path id="Vector" d="M10.5625 10.625C11.0266 10.625 11.424 10.4596 11.7547 10.1289C12.0855 9.79813 12.2506 9.401 12.25 8.9375C12.25 8.47344 12.0846 8.07603 11.7539 7.74528C11.4231 7.41453 11.026 7.24944 10.5625 7.25C10.0984 7.25 9.70103 7.41538 9.37028 7.74613C9.03953 8.07688 8.87444 8.474 8.875 8.9375C8.875 9.40156 9.04038 9.79897 9.37113 10.1297C9.70188 10.4605 10.099 10.6256 10.5625 10.625ZM10.5625 19.0625C8.29844 17.1359 6.60756 15.3466 5.48987 13.6946C4.37219 12.0425 3.81306 10.5131 3.8125 9.10625C3.8125 6.99688 4.49116 5.31641 5.84847 4.06484C7.20578 2.81328 8.77713 2.1875 10.5625 2.1875C12.3484 2.1875 13.9201 2.81328 15.2774 4.06484C16.6347 5.31641 17.3131 6.99688 17.3125 9.10625C17.3125 10.5125 16.7534 12.0419 15.6351 13.6946C14.5169 15.3472 12.826 17.1365 10.5625 19.0625Z" fill="#544C4C"/>
</g>
</svg>
