<svg width="112" height="95" viewBox="0 0 112 95" fill="none" xmlns="http://www.w3.org/2000/svg">
<g id="Frame 2288">
<g id="Logo Shapes 12">
<g id="Clip path group">
<mask id="mask0_33_564" style="mask-type:luminance" maskUnits="userSpaceOnUse" x="0" y="0" width="71" height="71">
<g id="clip0">
<path id="Vector" d="M0 -1.52588e-05L0 70.899H70.899V-1.52588e-05H0Z" fill="white"/>
</g>
</mask>
<g mask="url(#mask0_33_564)">
<g id="Group">
<path id="Vector_2" d="M70.8989 35.4437V26.8687H56.7439C56.7129 27.2687 56.6709 27.6877 56.6199 28.0917C56.5569 28.7657 56.4639 29.4397 56.3499 30.1037C56.298 30.4767 56.2359 30.8397 56.1629 31.2037C56.1109 31.4427 56.0699 31.6807 56.0179 31.9197C55.9349 32.3657 55.8309 32.8117 55.7179 33.2567C55.3769 34.6935 54.9545 36.1098 54.4529 37.4987C54.2669 38.0167 54.0699 38.535 53.8619 39.0537C53.7269 39.3857 53.5819 39.7177 53.4369 40.0537C52.8463 41.4127 52.1817 42.7384 51.4459 44.0247H51.6119C50.9648 45.2364 50.1822 46.3707 49.2789 47.4057C49.2789 47.4157 49.2679 47.4267 49.2579 47.4367C48.6049 48.3597 47.9099 49.2517 47.1839 50.1227C46.4679 50.9727 45.7219 51.7927 44.9339 52.5807C44.5399 52.9807 44.1339 53.3807 43.7199 53.7517C43.7086 53.7738 43.6908 53.792 43.6689 53.8037C43.2689 54.1777 42.8799 54.5297 42.4689 54.8717C41.6179 55.6187 40.7469 56.3137 39.8349 56.9717C39.3579 57.3247 38.8699 57.6567 38.3719 57.9877C37.9889 58.2477 37.6149 58.4877 37.2209 58.7247C37.2109 58.7347 37.2009 58.7347 37.1899 58.7447C36.8166 58.984 36.4329 59.2124 36.0389 59.4297C35.0329 59.9997 33.9959 60.5387 32.9389 61.0297C32.4929 61.2367 32.0469 61.4447 31.5899 61.6297C30.6779 62.0137 29.7549 62.3667 28.8219 62.6777C28.4899 62.7917 28.1579 62.8947 27.8219 62.9987C27.1589 63.2067 26.4849 63.3987 25.8099 63.5687C25.5719 63.6317 25.3229 63.6937 25.0849 63.7457C24.6389 63.8597 24.2029 63.9527 23.7569 64.0457C23.2699 64.1397 22.7819 64.2327 22.2949 64.3057C21.7559 64.3987 21.2059 64.4817 20.6669 64.5437C20.2109 64.6057 19.7669 64.6437 19.3189 64.6887C19.1319 64.7097 18.9559 64.7207 18.7689 64.7307C18.6696 64.7464 18.5694 64.7567 18.4689 64.7617C18.2199 64.7827 17.9689 64.7927 17.7219 64.8037C17.0479 64.845 16.3636 64.8657 15.6689 64.8657C19.6709 67.5636 24.1824 69.4143 28.9261 70.3041C33.6698 71.1939 38.5453 71.1039 43.2529 70.0397C43.2729 70.0297 43.3039 70.0297 43.3249 70.0197C49.7107 68.5528 55.5666 65.3493 60.246 60.7631C64.9253 56.177 68.2459 50.3866 69.8409 44.0317C70.5488 41.2241 70.9042 38.3392 70.8989 35.4437Z" fill="#71825E"/>
<path id="Vector_3" d="M56.7439 26.8686H39.3439C38.21 26.8563 37.0848 27.0691 36.0337 27.4946C34.9825 27.92 34.0262 28.5498 33.22 29.3473C32.4138 30.1448 31.7738 31.0943 31.337 32.1408C30.9002 33.1873 30.6753 34.3101 30.6753 35.4441C30.6753 36.5781 30.9002 37.7009 31.337 38.7474C31.7738 39.7939 32.4138 40.7434 33.22 41.5409C34.0262 42.3384 34.9825 42.9681 36.0337 43.3936C37.0848 43.8191 38.21 44.0318 39.3439 44.0196H51.4439C54.4522 38.7627 56.262 32.9062 56.7439 26.8686Z" fill="#71825E"/>
<path id="Vector_4" d="M49.257 47.4319C47.5428 49.4143 45.4219 51.0044 43.0384 52.0941C40.6549 53.1838 38.0647 53.7475 35.444 53.747C34.2291 53.7463 33.0172 53.6284 31.825 53.3949C30.642 53.1519 29.4856 52.7943 28.372 52.3269C25.0885 50.9419 22.2783 48.6327 20.283 45.68C20.273 45.68 20.273 45.6799 20.273 45.6689C19.827 45.1919 19.391 44.695 18.973 44.186C18.9721 44.1781 18.9681 44.1709 18.962 44.1659C15.0306 39.4253 12.3165 33.7963 11.0558 27.768C9.79506 21.7397 10.0258 15.4948 11.728 9.57598C11.769 9.37598 11.828 9.17588 11.894 8.97588C5.11809 14.9932 0.907804 23.3798 0.130353 32.4084C-0.647097 41.437 2.0675 50.4199 7.71499 57.5069C9.98015 60.3452 12.6619 62.8243 15.669 64.8599C24.3539 64.8441 32.8112 62.0817 39.831 56.9679C43.464 54.3152 46.6466 51.0954 49.257 47.4319Z" fill="#71825E"/>
<path id="Vector_5" d="M70.0281 -0.000843048L53.9861 -0.000843048L53.9853 0.00326157L53.9828 0.00665665L53.9792 0.00876236L53.9751 0.00915909V0.0201607C53.7991 0.28916 53.6331 0.559263 53.4461 0.820263C53.0461 1.45326 52.6171 2.06526 52.1811 2.66626C51.0833 4.17346 49.8884 5.60746 48.6041 6.95916C48.3651 7.21816 48.1161 7.47826 47.8671 7.73726C47.8261 7.77826 47.7741 7.82016 47.7321 7.86116C47.3701 8.23516 47.0071 8.58726 46.6321 8.92926C46.2381 9.30326 45.8321 9.66616 45.4321 10.0292C45.0901 10.3192 44.7381 10.6202 44.3851 10.9102C44.1571 11.0972 43.9181 11.2832 43.6801 11.4702C43.4931 11.6262 43.2961 11.7703 43.1091 11.9163C42.8191 12.1343 42.5291 12.3522 42.2381 12.5592C42.1381 12.6322 42.0381 12.7042 41.9481 12.7662C41.5751 13.0362 41.1911 13.3063 40.7971 13.5543C40.7513 13.5911 40.7028 13.6245 40.6521 13.6542C40.2271 13.9342 39.8011 14.2043 39.3661 14.4633C38.9821 14.7123 38.5991 14.9402 38.2041 15.1472C38.0591 15.2412 37.9041 15.3242 37.7481 15.4072C37.3751 15.6242 37.0021 15.8322 36.6281 16.0072C36.5871 16.0282 36.5561 16.0492 36.5141 16.0692C36.0791 16.3082 35.6331 16.5262 35.1871 16.7332C35.1661 16.7332 35.1561 16.7432 35.1351 16.7542C34.8351 16.9092 34.5351 17.0443 34.2351 17.1793C34.6351 17.1483 35.0441 17.1383 35.4481 17.1383H52.8781C54.045 17.1374 55.2089 17.0191 56.3521 16.7852C60.2156 15.9891 63.686 13.8843 66.1776 10.8262C68.6691 7.76796 70.0292 3.94376 70.0281 -0.000843048Z" fill="#71825E"/>
<path id="Vector_6" d="M53.9859 6.10352e-05H35.4439C27.1894 0.00176239 19.1951 2.88857 12.8439 8.16106C12.5229 8.42006 12.2009 8.69017 11.8899 8.97017C11.8351 9.13397 11.79 9.30097 11.7549 9.47017C11.7356 9.49357 11.7247 9.52277 11.7239 9.55317V9.57307C11.6099 9.95707 11.5059 10.3511 11.4019 10.7451C11.3919 10.8071 11.3709 10.8801 11.3509 10.9531C11.2569 11.3261 11.1739 11.7102 11.0909 12.0932C10.9669 12.6432 10.8629 13.1932 10.7699 13.7532C10.7179 14.0532 10.6769 14.3532 10.6249 14.6532C10.5729 15.0162 10.5319 15.3892 10.4899 15.7622C10.4479 16.1052 10.4169 16.4471 10.3899 16.7891C10.3799 16.9651 10.3589 17.1421 10.3489 17.3281C10.2869 18.2201 10.2549 19.1222 10.2549 20.0282C10.2549 20.2572 10.2549 20.4852 10.2659 20.7022C10.2659 20.9022 10.2759 21.0862 10.2869 21.2832C10.2796 21.3906 10.2829 21.4984 10.2969 21.6052C10.2969 21.7502 10.3069 21.8952 10.3179 22.0402C10.3279 22.4242 10.3589 22.8072 10.3899 23.1912C10.4009 23.3472 10.4109 23.5022 10.4319 23.6582C10.4729 24.1452 10.5249 24.6222 10.5979 25.1102C10.6389 25.4102 10.6809 25.7212 10.7319 26.0222C10.7323 26.079 10.7432 26.1353 10.7639 26.1882C10.7949 26.4162 10.8359 26.6551 10.8779 26.8881C11.0329 27.7691 11.2299 28.6512 11.4579 29.5112C11.5209 29.7712 11.5929 30.0302 11.6659 30.2792C12.0596 31.6765 12.5303 33.0509 13.0759 34.3961C13.2319 34.7791 13.3979 35.1531 13.5759 35.5261C13.9389 36.3561 14.3429 37.1651 14.7759 37.9631C14.9419 38.2951 15.1279 38.6162 15.3149 38.9382C15.8439 39.8612 16.4149 40.7631 17.0259 41.6381C17.3369 42.0741 17.6479 42.5092 17.9699 42.9382C18.2809 43.3432 18.6019 43.7471 18.9239 44.1381C18.9403 44.1492 18.9542 44.1636 18.9649 44.1802C19.0479 44.2942 19.1419 44.3972 19.2349 44.5112C19.5669 44.9112 19.9189 45.3002 20.2719 45.6832C18.2265 42.6659 17.1353 39.1034 17.1399 35.4581V35.4481C17.1399 33.0477 17.6134 30.6708 18.5333 28.4536C19.4532 26.2364 20.8015 24.2225 22.5009 22.5272C25.6362 19.3889 29.8038 17.495 34.2299 17.1972C34.5299 17.0622 34.8299 16.9272 35.1299 16.7722C35.1509 16.7612 35.1609 16.7512 35.1819 16.7512C35.6279 16.5332 36.0739 16.3162 36.5089 16.0872C36.5509 16.0672 36.5819 16.0462 36.6229 16.0252C36.9969 15.8392 37.3699 15.6312 37.7429 15.4252C37.8989 15.3422 38.0539 15.2592 38.1989 15.1652C38.5989 14.9482 38.9769 14.7202 39.3609 14.4812C39.7959 14.2222 40.2219 13.9521 40.6469 13.6721C40.6976 13.6424 40.7461 13.609 40.7919 13.5722C41.1759 13.3242 41.5589 13.0641 41.9429 12.7841C42.0359 12.7221 42.1299 12.6502 42.2329 12.5772C42.5239 12.3702 42.8139 12.1522 43.1039 11.9342C43.2909 11.7892 43.4879 11.6442 43.6749 11.4882C43.9129 11.3122 44.1519 11.1252 44.3799 10.9282C44.7329 10.6382 45.0799 10.3371 45.4269 10.0471C45.8269 9.68407 46.2359 9.32117 46.6269 8.94717C47.0009 8.60517 47.3639 8.25317 47.7269 7.87917C47.7689 7.83817 47.8209 7.79607 47.8619 7.75507C48.1109 7.49607 48.3619 7.23616 48.5989 6.97717C49.8832 5.62537 51.0781 4.19127 52.1759 2.68417C52.6219 2.08417 53.0469 1.47107 53.4519 0.838066C53.6279 0.579067 53.8039 0.309162 53.9699 0.0381622V0.0271606C53.9735 0.0292625 53.9777 0.0298615 53.9818 0.028862C53.9858 0.0278625 53.9893 0.0252686 53.9914 0.0216675C53.9935 0.0180664 53.9941 0.0137672 53.9931 0.00976562C53.9921 0.00566483 53.9895 0.00226212 53.9859 6.10352e-05Z" fill="#71825E"/>
<g id="Group_2" style="mix-blend-mode:multiply" opacity="0.1">
<path id="Vector_7" d="M35.4441 53.7471C34.2292 53.7464 33.0173 53.6285 31.8251 53.3951C25.5621 55.9151 17.6701 57.5331 7.71509 57.5011C9.98025 60.3394 12.662 62.8184 15.6691 64.8541C24.354 64.8382 32.8113 62.0758 39.8311 56.9621C43.4636 54.3112 46.6462 51.0934 49.2571 47.4321C47.5429 49.4144 45.422 51.0045 43.0385 52.0942C40.655 53.1839 38.0648 53.7476 35.4441 53.7471Z" fill="#71825E"/>
</g>
<g id="Group_3" style="mix-blend-mode:multiply" opacity="0.16">
<path id="Vector_8" d="M56.744 26.8691H55.168C53.6694 33.3132 50.4675 39.2365 45.897 44.0201H51.445C54.4529 38.7631 56.2623 32.9066 56.744 26.8691Z" fill="#71825E"/>
</g>
<g id="Group_4" style="mix-blend-mode:multiply" opacity="0.1">
<path id="Vector_9" d="M22.16 2.59216C18.7853 3.95286 15.6435 5.83176 12.848 8.16106C12.527 8.42006 12.205 8.69017 11.894 8.97017C11.8392 9.13397 11.7941 9.30097 11.759 9.47017C11.7397 9.49357 11.7288 9.52277 11.728 9.55317V9.57307C11.614 9.95707 11.51 10.3511 11.406 10.7451C11.396 10.8071 11.375 10.8801 11.355 10.9531C11.261 11.3261 11.178 11.7102 11.095 12.0932C10.971 12.6432 10.867 13.1932 10.774 13.7532C10.722 14.0532 10.681 14.3532 10.629 14.6532C10.577 15.0162 10.536 15.3892 10.494 15.7622C10.452 16.1052 10.421 16.4471 10.394 16.7891C10.384 16.9651 10.363 17.1421 10.353 17.3281C10.291 18.2201 10.259 19.1222 10.259 20.0282C10.259 20.2572 10.259 20.4852 10.27 20.7022C10.27 20.9022 10.28 21.0862 10.291 21.2832C10.2837 21.3906 10.2871 21.4984 10.301 21.6052C10.301 21.7502 10.311 21.8952 10.322 22.0402C10.332 22.4242 10.363 22.8072 10.394 23.1912C10.405 23.3472 10.415 23.5022 10.436 23.6582C10.477 24.1452 10.529 24.6222 10.602 25.1102C10.643 25.4102 10.685 25.7212 10.736 26.0222C10.7365 26.079 10.7473 26.1353 10.768 26.1882C10.799 26.4162 10.84 26.6551 10.882 26.8881C11.037 27.7691 11.234 28.6512 11.462 29.5112C11.525 29.7712 11.597 30.0302 11.67 30.2792C12.0637 31.6765 12.5345 33.0509 13.08 34.3961C13.236 34.7791 13.402 35.1531 13.58 35.5261C13.943 36.3561 14.347 37.1651 14.78 37.9631C14.946 38.2951 15.132 38.6162 15.319 38.9382C15.848 39.8612 16.419 40.7631 17.03 41.6381C17.341 42.0741 17.652 42.5092 17.974 42.9382C18.285 43.3432 18.606 43.7471 18.928 44.1381C18.9444 44.1492 18.9583 44.1636 18.969 44.1802C19.052 44.2942 19.146 44.3972 19.239 44.5112C19.571 44.9112 19.923 45.3002 20.276 45.6832C18.2307 42.6659 17.1394 39.1034 17.144 35.4581V35.4481C15.344 27.7331 15.132 16.5231 21.883 3.17706C21.963 2.97606 22.057 2.77616 22.16 2.59216Z" fill="#71825E"/>
</g>
<g id="Group_5" style="mix-blend-mode:multiply" opacity="0.1">
<path id="Vector_10" d="M64.5321 -0.000843048H53.9861L53.9853 0.00326157L53.9828 0.00665665L53.9792 0.00876236L53.9751 0.00915909V0.0201607C53.7991 0.28916 53.6331 0.559263 53.4461 0.820263C53.0461 1.45326 52.6171 2.06526 52.1811 2.66626C51.0833 4.17346 49.8884 5.60746 48.6041 6.95916C48.3651 7.21816 48.1161 7.47826 47.8671 7.73726C47.8261 7.77826 47.7741 7.82016 47.7321 7.86116C47.3701 8.23516 47.0071 8.58726 46.6321 8.92926C46.2381 9.30326 45.8321 9.66616 45.4321 10.0292C45.0901 10.3192 44.7381 10.6202 44.3851 10.9102C44.1571 11.0972 43.9181 11.2832 43.6801 11.4702C43.4931 11.6262 43.2961 11.7703 43.1091 11.9163C42.8191 12.1343 42.5291 12.3522 42.2381 12.5592C42.1381 12.6322 42.0381 12.7042 41.9481 12.7662C41.5751 13.0362 41.1911 13.3063 40.7971 13.5543C40.7513 13.5911 40.7028 13.6245 40.6521 13.6542C40.2271 13.9342 39.8011 14.2043 39.3661 14.4633C38.9821 14.7123 38.5991 14.9402 38.2041 15.1472C38.0591 15.2412 37.9041 15.3242 37.7481 15.4072C37.3751 15.6242 37.0021 15.8322 36.6281 16.0072C36.5871 16.0282 36.5561 16.0492 36.5141 16.0692C36.0791 16.3082 35.6331 16.5262 35.1871 16.7332C35.1661 16.7332 35.1561 16.7432 35.1351 16.7542C34.8351 16.9092 34.5351 17.0443 34.2351 17.1793C34.6351 17.1483 35.0441 17.1383 35.4481 17.1383H40.0381C49.1262 13.5799 57.273 7.97676 63.8471 0.763264C64.0781 0.517263 64.3041 0.258158 64.5321 -0.000843048Z" fill="#71825E"/>
</g>
<g id="Group_6" style="mix-blend-mode:screen" opacity="0.6">
<path id="Vector_11" d="M47.1779 50.1174C43.6161 54.3556 39.2389 57.8348 34.3063 60.3484C29.3737 62.8619 23.9862 64.3586 18.4639 64.7494C18.6189 64.7594 19.1059 64.7804 19.8429 64.8014C20.3962 64.8164 20.95 64.8024 21.5019 64.7594C22.2201 64.7379 22.9366 64.6758 23.6479 64.5734C24.0479 64.5314 24.4479 64.4734 24.8719 64.4174C25.2869 64.3344 25.7229 64.2514 26.1719 64.1684C27.0639 64.0024 27.9869 63.7434 28.9409 63.4744C29.8739 63.1524 30.8699 62.8934 31.8239 62.4684C32.7989 62.0844 33.7529 61.6284 34.7069 61.1684C35.6399 60.6504 36.5839 60.1624 37.4549 59.5924C38.3469 59.0534 39.1659 58.4314 39.9639 57.8504C40.7529 57.2384 41.4889 56.6264 42.1519 56.0154C42.7873 55.449 43.3931 54.8502 43.9669 54.2214C44.5169 53.6504 44.9839 53.1014 45.3879 52.5924C45.742 52.1708 46.0741 51.7312 46.3829 51.2754C46.8509 50.6254 47.1209 50.2104 47.1779 50.1174Z" fill="#71825E"/>
</g>
<g id="Group_7" style="mix-blend-mode:screen" opacity="0.6">
<path id="Vector_12" d="M53.978 0.0202904V0.00928879C53.916 0.0722885 53.646 0.352287 53.232 0.818287C52.765 1.33729 52.091 2.08329 51.292 2.97529C50.878 3.41129 50.442 3.87529 49.975 4.37529C49.508 4.87529 48.99 5.36029 48.493 5.89929C47.435 6.93629 46.305 8.02529 45.133 9.06229C43.961 10.1203 42.733 11.1053 41.597 12.0283C40.997 12.4643 40.456 12.9283 39.897 13.3283C39.338 13.7283 38.829 14.1163 38.352 14.4693C37.387 15.1743 36.578 15.7453 35.987 16.1493C35.552 16.4493 35.261 16.6673 35.137 16.7613C42.8858 13.0928 49.4234 7.28379 53.978 0.0202904Z" fill="#71825E"/>
</g>
<g id="Group_8" style="mix-blend-mode:screen" opacity="0.6">
<path id="Vector_13" d="M10.2549 20.0235C10.2498 16.4887 10.7457 12.9711 11.7279 9.57549V9.5345C11.7279 9.5345 11.4899 10.0635 11.1469 11.0275C10.6731 12.355 10.3053 13.7179 10.0469 15.1035C9.66213 17.0744 9.47122 19.0783 9.47691 21.0865C9.46876 22.2188 9.5205 23.3507 9.63191 24.4775C9.75691 25.6285 9.92291 26.8005 10.1609 27.9515C10.3989 29.1025 10.7109 30.2435 11.0609 31.3515C11.223 31.9037 11.4136 32.4471 11.6319 32.9795C11.8319 33.5085 12.0459 34.0275 12.2749 34.5355C12.692 35.5063 13.1662 36.4516 13.6949 37.3665C14.1496 38.1958 14.6504 38.9991 15.1949 39.7725C15.6424 40.4326 16.1234 41.0695 16.6359 41.6805C17.0719 42.2405 17.5069 42.6865 17.8359 43.0695C18.4789 43.7235 18.8839 44.1065 18.9559 44.1695C13.3191 37.3872 10.24 28.8424 10.2549 20.0235Z" fill="#71825E"/>
</g>
<g id="Group_9" style="mix-blend-mode:multiply" opacity="0.3">
<path id="Vector_14" d="M70.028 -0.000293732L35.444 -0.000293732C27.1895 0.00140572 19.1952 2.88821 12.844 8.16071C13.819 7.44571 14.804 6.77171 15.831 6.13871C16.8737 5.49441 17.9498 4.90591 19.055 4.37571C19.978 3.91971 20.922 3.52571 21.876 3.16271C22.053 3.08971 22.239 3.02771 22.426 2.95471C23.5675 2.52791 24.7304 2.16081 25.91 1.85471C27.0851 1.54371 28.2757 1.29471 29.477 1.10871C30.677 0.942707 31.883 0.808803 33.086 0.755802C34.289 0.702803 35.492 0.713705 36.736 0.724705L40.436 0.765804L47.83 0.817806H55.224C58.0973 0.817806 60.9697 0.800405 63.841 0.765804C65.667 0.755804 67.492 0.724709 69.306 0.703709L69.296 1.4038L69.141 2.80371L68.866 4.17571L68.483 5.5347L67.975 6.86171L67.353 8.13671L66.627 9.36071L65.797 10.5217L64.884 11.6107L63.884 12.6377L62.805 13.5817L61.644 14.4317L60.399 15.1787L59.099 15.8217L57.751 16.3607L56.351 16.7857C60.2146 15.9898 63.6853 13.8851 66.1771 10.827C68.6688 7.76881 70.029 3.94451 70.028 -0.000293732Z" fill="#71825E"/>
</g>
<g id="Group_10" style="mix-blend-mode:multiply" opacity="0.3">
<path id="Vector_15" d="M70.8991 35.4433V26.8683H58.7351C60.7571 27.0023 62.7901 27.0753 64.8121 27.1683C66.6681 27.2513 68.5121 27.3133 70.3701 27.3683L70.2041 33.9223C70.1831 35.1043 70.1941 36.2553 70.1041 37.3963C70.0232 38.5433 69.8847 39.6854 69.6891 40.8183C69.5118 41.9481 69.2694 43.0666 68.9631 44.1683C68.6677 45.287 68.3111 46.3887 67.8951 47.4684C67.5321 48.5364 67.0241 49.5843 66.5671 50.6313C66.0181 51.6373 65.5411 52.6843 64.8981 53.6383C64.3281 54.6383 63.6431 55.5573 62.9791 56.5013C62.6471 56.9673 62.2641 57.4013 61.9111 57.8493C61.5597 58.306 61.1824 58.742 60.7811 59.1553C60.3871 59.5703 60.0031 60.0063 59.5991 60.4103L58.3441 61.6103C57.9441 62.0103 57.4731 62.3573 57.0371 62.7403C56.5921 63.1033 56.1661 63.4873 55.6891 63.8193L54.2891 64.8453L52.8271 65.7793C52.3401 66.1103 51.8271 66.3793 51.3271 66.6603C50.8271 66.9413 50.3211 67.2513 49.7921 67.4903C48.7441 67.9903 47.6921 68.4963 46.5871 68.8903C45.5301 69.3363 44.4201 69.6363 43.3311 70.0103C49.7168 68.5434 55.5727 65.3399 60.2521 60.7538C64.9314 56.1676 68.252 50.3772 69.8471 44.0223C70.5522 41.2174 70.9056 38.3356 70.8991 35.4433Z" fill="#71825E"/>
</g>
</g>
</g>
</g>
</g>
<g id="Logo Shapes 41">
<g id="Clip path group_2">
<mask id="mask1_33_564" style="mask-type:luminance" maskUnits="userSpaceOnUse" x="56" y="26" width="56" height="69">
<g id="clip0_2">
<path id="Vector_16" d="M111.77 26.874H56.75V94.056H111.77V26.874Z" fill="white"/>
</g>
</mask>
<g mask="url(#mask1_33_564)">
<g id="Group_11">
<path id="Vector_17" d="M111.77 54.4061C111.772 56.7409 111.472 59.0661 110.878 61.3241C110.298 63.5389 109.448 65.6742 108.348 67.6821C107.733 68.7974 107.037 69.8669 106.268 70.8821C106.238 70.9341 106.216 70.9631 106.209 70.9821L106.202 70.9891C105.603 71.7793 104.963 72.5377 104.284 73.2611C103.322 74.2844 102.281 75.2312 101.172 76.0931C101.172 76.0931 93.191 81.8241 83.618 81.8241L82.047 81.8311L75.328 81.8751V63.3531H84.282C85.4611 63.3627 86.6293 63.1263 87.712 62.6591C88.7794 62.2057 89.7505 61.5527 90.573 60.7351C91.3933 59.9099 92.0448 58.9327 92.491 57.8581C92.9606 56.7685 93.1967 55.5925 93.184 54.4061C93.188 53.8045 93.131 53.2041 93.014 52.6141C93.0101 52.6073 93.0078 52.5998 93.007 52.5921C92.8956 52.0243 92.7226 51.4703 92.491 50.9401C91.5842 48.7772 89.8656 47.056 87.704 46.1461C86.6243 45.6784 85.4586 45.4423 84.282 45.4531H75.328C75.3267 40.5262 73.369 35.8015 69.8852 32.3176C66.4015 28.8337 61.6769 26.8757 56.75 26.8741H84.282C86.752 26.868 89.2112 27.2004 91.591 27.8621C93.885 28.5021 96.0864 29.4369 98.14 30.6431C98.878 31.0781 99.593 31.5501 100.287 32.0521L100.345 32.0881C103.453 34.3438 106.06 37.2193 108.001 40.5331C109.206 42.5902 110.141 44.794 110.782 47.0901C111.443 49.4723 111.776 51.9338 111.77 54.4061Z" fill="#71825E"/>
<path id="Vector_18" d="M108.79 94.0561H88.9062L85.7722 86.8061L83.6152 81.8212C93.1882 81.8212 101.169 76.0901 101.169 76.0901L103.455 81.4902L103.855 82.4272C103.855 82.4342 103.863 82.4342 103.863 82.4412L108.79 94.0561Z" fill="#71825E"/>
<path id="Vector_19" d="M75.328 45.453V94.053H56.75V26.874C61.6769 26.8756 66.4015 28.8336 69.8852 32.3175C73.369 35.8014 75.3267 40.5261 75.328 45.453Z" fill="#71825E"/>
<g id="Group_12" style="mix-blend-mode:multiply" opacity="0.16">
<path id="Vector_20" d="M75.328 45.453C75.3267 40.5261 73.369 35.8014 69.8852 32.3175C66.4015 28.8336 61.6769 26.8756 56.75 26.874H73.573C77.327 30.385 80.934 36.138 81.826 45.453H75.328Z" fill="#71825E"/>
</g>
<g id="Group_13" style="mix-blend-mode:multiply" opacity="0.16">
<path id="Vector_21" d="M82.0471 63.353V81.828L75.3281 81.872V63.353H82.0471Z" fill="#71825E"/>
</g>
<g id="Group_14" style="mix-blend-mode:multiply" opacity="0.16">
<path id="Vector_22" d="M103.458 81.4892C97.9558 84.3729 91.9527 86.1775 85.7722 86.8061L83.6152 81.8212C93.1882 81.8212 101.169 76.0901 101.169 76.0901L103.458 81.4892Z" fill="#71825E"/>
</g>
<g id="Group_15" style="mix-blend-mode:multiply" opacity="0.25">
<path id="Vector_23" d="M111.77 54.406C111.772 56.7408 111.472 59.066 110.878 61.324C110.298 63.5388 109.448 65.6741 108.348 67.682C107.733 68.7973 107.038 69.8668 106.268 70.882C106.401 70.668 106.725 70.152 107.16 69.363C107.955 67.9253 108.638 66.4285 109.203 64.886C109.993 62.727 110.535 60.4853 110.819 58.204C110.967 56.9261 111.036 55.6403 111.025 54.354C111.012 53.0253 110.904 51.6992 110.701 50.386C110.509 49.0726 110.218 47.7756 109.83 46.506C109.456 45.2749 109.005 44.0682 108.481 42.893C107.981 41.7925 107.42 40.7211 106.799 39.684C106.199 38.703 105.575 37.796 104.962 36.992C103.965 35.6867 102.868 34.4613 101.68 33.327C100.818 32.493 100.287 32.051 100.287 32.051L100.345 32.087C103.453 34.3428 106.06 37.2182 108.001 40.532C109.206 42.5891 110.141 44.7929 110.782 47.089C111.443 49.4716 111.776 51.9334 111.77 54.406Z" fill="#71825E"/>
</g>
<g id="Group_16" style="mix-blend-mode:multiply" opacity="0.25">
<path id="Vector_24" d="M108.79 94.0561H93.958C95.197 93.8721 96.429 93.7611 97.668 93.6561C98.907 93.5511 100.139 93.4791 101.368 93.4201C102.597 93.3611 103.846 93.3321 105.078 93.3091L107.644 93.2871C107.393 92.6681 107.144 92.0481 106.907 91.4211C106.516 90.4411 106.147 89.4601 105.793 88.4641C105.439 87.4681 105.093 86.4731 104.76 85.4641C104.427 84.4551 104.126 83.4511 103.86 82.4331L108.79 94.0561Z" fill="#71825E"/>
</g>
<g id="Group_17" style="mix-blend-mode:screen" opacity="0.7">
<path id="Vector_25" d="M57.524 60.469C57.517 62.569 57.509 64.669 57.495 66.731C57.481 68.793 57.45 70.831 57.428 72.801C57.377 76.739 57.295 80.412 57.192 83.561C57.008 89.861 56.75 94.056 56.75 94.056V26.874C56.75 26.874 57.008 31.074 57.192 37.369C57.292 40.519 57.377 44.191 57.428 48.13C57.45 50.099 57.495 52.135 57.495 54.2C57.495 56.265 57.515 58.367 57.524 60.469Z" fill="#71825E"/>
</g>
<g id="Group_18" style="mix-blend-mode:multiply" opacity="0.25">
<path id="Vector_26" d="M93.5232 55.852C93.4953 56.4034 93.4064 56.9501 93.2582 57.482C93.1772 57.762 93.0732 58.072 92.9772 58.337C92.8655 58.6352 92.7352 58.9261 92.5872 59.208C92.2813 59.8064 91.905 60.366 91.4662 60.875C91.0121 61.3981 90.5024 61.8702 89.9462 62.283C89.3775 62.6809 88.7697 63.0197 88.1322 63.294C87.5152 63.5554 86.8688 63.741 86.2072 63.847C85.5928 63.9464 84.9689 63.9736 84.3482 63.928C83.7882 63.899 83.2722 63.847 82.7852 63.795C80.8602 63.611 79.5762 63.353 79.5762 63.353H84.2822C85.4613 63.3626 86.6295 63.1263 87.7122 62.659C88.7796 62.2056 89.7507 61.5526 90.5732 60.735C91.3935 59.9098 92.045 58.9326 92.4912 57.858C92.9608 56.7684 93.1969 55.5924 93.1842 54.406C93.1882 53.8044 93.1312 53.2041 93.0142 52.614C93.1322 52.8832 93.2262 53.1623 93.2952 53.448C93.4891 54.2337 93.566 55.0438 93.5232 55.852Z" fill="#71825E"/>
</g>
<g id="Group_19" style="mix-blend-mode:screen" opacity="0.7">
<path id="Vector_27" d="M75.328 45.453V94.053C75.328 94.053 75.262 92.837 75.188 90.712C75.114 88.587 74.988 85.542 74.908 81.899C74.808 78.255 74.731 73.999 74.679 69.442C74.657 67.163 74.635 64.81 74.613 62.413C74.591 60.016 74.598 57.59 74.591 55.163C74.584 52.736 74.605 50.295 74.62 47.906C74.613 46.718 74.65 45.506 74.613 44.388C74.5609 43.2755 74.4029 42.1705 74.141 41.088C73.6453 39.0231 72.7968 37.0593 71.633 35.283C69.6706 32.3073 66.8998 29.9535 63.646 28.498C62.4907 27.9795 61.2841 27.584 60.046 27.318C59.2447 27.1455 58.4345 27.0173 57.619 26.934C57.051 26.897 56.749 26.875 56.749 26.875C61.6759 26.8766 66.4005 28.8346 69.8842 32.3185C73.368 35.8024 75.3257 40.5271 75.327 45.454L75.328 45.453Z" fill="#71825E"/>
</g>
</g>
</g>
</g>
</g>
</g>
</svg>
