<svg width="112" height="95" viewBox="0 0 112 95" fill="none" xmlns="http://www.w3.org/2000/svg">
<g id="Frame 2286">
<g id="Logo Shapes 12">
<g id="Clip path group">
<mask id="mask0_44_711" style="mask-type:luminance" maskUnits="userSpaceOnUse" x="0" y="0" width="71" height="72">
<g id="clip0">
<path id="Vector" d="M0 0.471848L0 71.3708H70.899V0.471848H0Z" fill="white"/>
</g>
</mask>
<g mask="url(#mask0_44_711)">
<g id="Group">
<path id="Vector_2" d="M70.8989 35.9156V27.3405H56.7439C56.7129 27.7406 56.6709 28.1595 56.6199 28.5635C56.5569 29.2375 56.4639 29.9115 56.3499 30.5756C56.298 30.9486 56.2359 31.3116 56.1629 31.6755C56.1109 31.9145 56.0699 32.1525 56.0179 32.3915C55.9349 32.8375 55.8309 33.2836 55.7179 33.7285C55.3769 35.1654 54.9545 36.5816 54.4529 37.9706C54.2669 38.4886 54.0699 39.0068 53.8619 39.5255C53.7269 39.8575 53.5819 40.1895 53.4369 40.5255C52.8463 41.8845 52.1817 43.2102 51.4459 44.4965H51.6119C50.9648 45.7083 50.1822 46.8426 49.2789 47.8776C49.2789 47.8876 49.2679 47.8986 49.2579 47.9086C48.6049 48.8316 47.9099 49.7235 47.1839 50.5945C46.4679 51.4445 45.7219 52.2645 44.9339 53.0525C44.5399 53.4525 44.1339 53.8525 43.7199 54.2235C43.7086 54.2456 43.6908 54.2638 43.6689 54.2755C43.2689 54.6495 42.8799 55.0015 42.4689 55.3435C41.6179 56.0905 40.7469 56.7855 39.8349 57.4435C39.3579 57.7965 38.8699 58.1285 38.3719 58.4595C37.9889 58.7196 37.6149 58.9595 37.2209 59.1965C37.2109 59.2065 37.2009 59.2065 37.1899 59.2165C36.8166 59.4558 36.4329 59.6842 36.0389 59.9015C35.0329 60.4715 33.9959 61.0105 32.9389 61.5015C32.4929 61.7085 32.0469 61.9166 31.5899 62.1016C30.6779 62.4856 29.7549 62.8386 28.8219 63.1496C28.4899 63.2636 28.1579 63.3665 27.8219 63.4705C27.1589 63.6785 26.4849 63.8706 25.8099 64.0406C25.5719 64.1036 25.3229 64.1656 25.0849 64.2176C24.6389 64.3316 24.2029 64.4245 23.7569 64.5175C23.2699 64.6115 22.7819 64.7046 22.2949 64.7776C21.7559 64.8706 21.2059 64.9536 20.6669 65.0156C20.2109 65.0776 19.7669 65.1155 19.3189 65.1605C19.1319 65.1815 18.9559 65.1925 18.7689 65.2025C18.6696 65.2183 18.5694 65.2286 18.4689 65.2335C18.2199 65.2545 17.9689 65.2645 17.7219 65.2755C17.0479 65.3169 16.3636 65.3375 15.6689 65.3375C19.6709 68.0355 24.1824 69.8862 28.9261 70.776C33.6698 71.6658 38.5453 71.5758 43.2529 70.5116C43.2729 70.5016 43.3039 70.5015 43.3249 70.4915C49.7107 69.0246 55.5666 65.8212 60.246 61.235C64.9253 56.6488 68.2459 50.8584 69.8409 44.5035C70.5488 41.6959 70.9042 38.8111 70.8989 35.9156Z" fill="white"/>
<path id="Vector_3" d="M56.7444 27.3404H39.3444C38.2105 27.3281 37.0853 27.5409 36.0342 27.9664C34.983 28.3918 34.0267 29.0216 33.2205 29.8191C32.4143 30.6166 31.7743 31.5661 31.3375 32.6126C30.9007 33.6591 30.6758 34.7819 30.6758 35.9159C30.6758 37.0499 30.9007 38.1727 31.3375 39.2192C31.7743 40.2657 32.4143 41.2152 33.2205 42.0127C34.0267 42.8102 34.983 43.4399 36.0342 43.8654C37.0853 44.2909 38.2105 44.5036 39.3444 44.4914H51.4444C54.4527 39.2345 56.2625 33.378 56.7444 27.3404Z" fill="white"/>
<path id="Vector_4" d="M49.2572 47.9037C47.543 49.8861 45.4221 51.4762 43.0386 52.5659C40.6551 53.6556 38.0649 54.2193 35.4442 54.2188C34.2293 54.2181 33.0174 54.1002 31.8252 53.8667C30.6422 53.6237 29.4858 53.2661 28.3722 52.7987C25.0887 51.4137 22.2785 49.1045 20.2832 46.1518C20.2732 46.1518 20.2732 46.1517 20.2732 46.1407C19.8272 45.6637 19.3912 45.1668 18.9732 44.6578C18.9723 44.6499 18.9683 44.6427 18.9622 44.6377C15.0308 39.8971 12.3167 34.2681 11.056 28.2398C9.7953 22.2115 10.026 15.9666 11.7282 10.0478C11.7692 9.84784 11.8282 9.64775 11.8942 9.44775C5.11833 15.465 0.908048 23.8516 0.130597 32.8802C-0.646853 41.9088 2.06774 50.8917 7.71523 57.9787C9.98039 60.817 12.6621 63.2961 15.6692 65.3318C24.3541 65.3159 32.8114 62.5535 39.8312 57.4397C43.4642 54.787 46.6468 51.5672 49.2572 47.9037Z" fill="white"/>
<path id="Vector_5" d="M70.0284 0.47102L53.9864 0.47102L53.9855 0.475124L53.9831 0.478519L53.9795 0.480625L53.9754 0.481022V0.492023C53.7994 0.761023 53.6334 1.03113 53.4464 1.29213C53.0464 1.92513 52.6174 2.53713 52.1814 3.13813C51.0836 4.64533 49.8887 6.07932 48.6044 7.43102C48.3654 7.69002 48.1164 7.95012 47.8674 8.20912C47.8264 8.25012 47.7744 8.29202 47.7324 8.33302C47.3704 8.70702 47.0074 9.05912 46.6324 9.40112C46.2384 9.77512 45.8323 10.138 45.4324 10.501C45.0904 10.791 44.7384 11.092 44.3854 11.382C44.1574 11.569 43.9184 11.755 43.6804 11.942C43.4934 12.098 43.2964 12.2421 43.1094 12.3881C42.8194 12.6061 42.5294 12.824 42.2383 13.031C42.1384 13.104 42.0384 13.176 41.9484 13.238C41.5754 13.508 41.1914 13.7781 40.7974 14.0261C40.7516 14.0629 40.7031 14.0963 40.6524 14.126C40.2274 14.406 39.8014 14.6761 39.3664 14.9351C38.9824 15.1841 38.5994 15.412 38.2044 15.619C38.0594 15.713 37.9044 15.796 37.7484 15.879C37.3754 16.096 37.0024 16.304 36.6284 16.479C36.5874 16.5 36.5564 16.521 36.5144 16.541C36.0794 16.78 35.6334 16.998 35.1874 17.205C35.1664 17.205 35.1564 17.215 35.1354 17.226C34.8354 17.381 34.5354 17.5161 34.2354 17.6511C34.6354 17.6201 35.0444 17.6101 35.4484 17.6101H52.8784C54.0453 17.6092 55.2092 17.4909 56.3524 17.257C60.2159 16.4609 63.6862 14.3561 66.1778 11.298C68.6693 8.23982 70.0294 4.41562 70.0284 0.47102Z" fill="white"/>
<path id="Vector_6" d="M53.9859 0.471924H35.4439C27.1894 0.473625 19.1951 3.36043 12.8439 8.63293C12.5229 8.89193 12.2009 9.16203 11.8899 9.44203C11.8351 9.60583 11.79 9.77283 11.7549 9.94203C11.7356 9.96543 11.7247 9.99463 11.7239 10.025V10.0449C11.6099 10.4289 11.5059 10.8229 11.4019 11.2169C11.3919 11.2789 11.3709 11.3519 11.3509 11.4249C11.2569 11.7979 11.1739 12.182 11.0909 12.565C10.9669 13.115 10.8629 13.665 10.7699 14.225C10.7179 14.525 10.6769 14.825 10.6249 15.125C10.5729 15.488 10.5319 15.861 10.4899 16.234C10.4479 16.577 10.4169 16.9189 10.3899 17.2609C10.3799 17.4369 10.3589 17.6139 10.3489 17.7999C10.2869 18.6919 10.2549 19.594 10.2549 20.5C10.2549 20.729 10.2549 20.957 10.2659 21.174C10.2659 21.374 10.2759 21.558 10.2869 21.755C10.2796 21.8624 10.2829 21.9702 10.2969 22.077C10.2969 22.222 10.3069 22.367 10.3179 22.512C10.3279 22.896 10.3589 23.279 10.3899 23.663C10.4009 23.819 10.4109 23.974 10.4319 24.13C10.4729 24.617 10.5249 25.094 10.5979 25.582C10.6389 25.882 10.6809 26.193 10.7319 26.494C10.7323 26.5508 10.7432 26.6071 10.7639 26.66C10.7949 26.888 10.8359 27.1269 10.8779 27.3599C11.0329 28.2409 11.2299 29.123 11.4579 29.983C11.5209 30.243 11.5929 30.502 11.6659 30.751C12.0596 32.1483 12.5303 33.5227 13.0759 34.8679C13.2319 35.2509 13.3979 35.6249 13.5759 35.9979C13.9389 36.8279 14.3429 37.6369 14.7759 38.4349C14.9419 38.7669 15.1279 39.088 15.3149 39.41C15.8439 40.333 16.4149 41.2349 17.0259 42.1099C17.3369 42.5459 17.6479 42.981 17.9699 43.41C18.2809 43.815 18.6019 44.2189 18.9239 44.6099C18.9403 44.621 18.9542 44.6354 18.9649 44.652C19.0479 44.766 19.1419 44.869 19.2349 44.983C19.5669 45.383 19.9189 45.772 20.2719 46.155C18.2265 43.1377 17.1353 39.5752 17.1399 35.9299V35.9199C17.1399 33.5195 17.6134 31.1426 18.5333 28.9254C19.4532 26.7082 20.8015 24.6943 22.5009 22.999C25.6362 19.8607 29.8038 17.9668 34.2299 17.669C34.5299 17.534 34.8299 17.399 35.1299 17.244C35.1509 17.233 35.1609 17.223 35.1819 17.223C35.6279 17.005 36.0739 16.788 36.5089 16.559C36.5509 16.539 36.5819 16.518 36.6229 16.497C36.9969 16.311 37.3699 16.103 37.7429 15.897C37.8989 15.814 38.0539 15.731 38.1989 15.637C38.5989 15.42 38.9769 15.192 39.3609 14.953C39.7959 14.694 40.2219 14.4239 40.6469 14.1439C40.6976 14.1142 40.7461 14.0808 40.7919 14.044C41.1759 13.796 41.5589 13.5359 41.9429 13.2559C42.0359 13.1939 42.1299 13.122 42.2329 13.049C42.5239 12.842 42.8139 12.624 43.1039 12.406C43.2909 12.261 43.4879 12.116 43.6749 11.96C43.9129 11.784 44.1519 11.597 44.3799 11.4C44.7329 11.11 45.0799 10.8089 45.4269 10.5189C45.8269 10.1559 46.2359 9.79303 46.6269 9.41903C47.0009 9.07703 47.3639 8.72503 47.7269 8.35103C47.7689 8.31003 47.8209 8.26793 47.8619 8.22693C48.1109 7.96793 48.3619 7.70803 48.5989 7.44903C49.8832 6.09723 51.0781 4.66313 52.1759 3.15603C52.6219 2.55603 53.0469 1.94293 53.4519 1.30993C53.6279 1.05093 53.8039 0.781025 53.9699 0.510025V0.499023C53.9735 0.501125 53.9777 0.501724 53.9818 0.500725C53.9858 0.499725 53.9893 0.497131 53.9914 0.49353C53.9935 0.489929 53.9941 0.48563 53.9931 0.481628C53.9921 0.477528 53.9895 0.474125 53.9859 0.471924Z" fill="white"/>
<g id="Group_2" style="mix-blend-mode:multiply" opacity="0.1">
<path id="Vector_7" d="M35.4448 54.2189C34.2299 54.2182 33.018 54.1003 31.8258 53.8669C25.5628 56.3869 17.6708 58.0049 7.71582 57.9729C9.98098 60.8112 12.6627 63.2903 15.6698 65.3259C24.3547 65.3101 32.812 62.5477 39.8318 57.4339C43.4643 54.783 46.6469 51.5652 49.2578 47.9039C47.5436 49.8862 45.4227 51.4763 43.0392 52.566C40.6557 53.6557 38.0655 54.2194 35.4448 54.2189Z" fill="white"/>
</g>
<g id="Group_3" style="mix-blend-mode:multiply" opacity="0.16">
<path id="Vector_8" d="M56.7445 27.3409H55.1685C53.6699 33.785 50.468 39.7083 45.8975 44.4919H51.4455C54.4534 39.2349 56.2628 33.3784 56.7445 27.3409Z" fill="white"/>
</g>
<g id="Group_4" style="mix-blend-mode:multiply" opacity="0.1">
<path id="Vector_9" d="M22.1598 3.06403C18.7851 4.42472 15.6433 6.30363 12.8478 8.63293C12.5268 8.89193 12.2048 9.16203 11.8938 9.44203C11.839 9.60583 11.7939 9.77283 11.7588 9.94203C11.7395 9.96543 11.7286 9.99463 11.7278 10.025V10.0449C11.6138 10.4289 11.5098 10.8229 11.4058 11.2169C11.3958 11.2789 11.3748 11.3519 11.3548 11.4249C11.2608 11.7979 11.1778 12.182 11.0948 12.565C10.9708 13.115 10.8668 13.665 10.7738 14.225C10.7218 14.525 10.6808 14.825 10.6288 15.125C10.5768 15.488 10.5358 15.861 10.4938 16.234C10.4518 16.577 10.4208 16.9189 10.3938 17.2609C10.3838 17.4369 10.3628 17.6139 10.3528 17.7999C10.2908 18.6919 10.2588 19.594 10.2588 20.5C10.2588 20.729 10.2588 20.957 10.2698 21.174C10.2698 21.374 10.2798 21.558 10.2908 21.755C10.2835 21.8624 10.2869 21.9702 10.3008 22.077C10.3008 22.222 10.3108 22.367 10.3218 22.512C10.3318 22.896 10.3628 23.279 10.3938 23.663C10.4048 23.819 10.4148 23.974 10.4358 24.13C10.4768 24.617 10.5288 25.094 10.6018 25.582C10.6428 25.882 10.6848 26.193 10.7358 26.494C10.7363 26.5508 10.7471 26.6071 10.7678 26.66C10.7988 26.888 10.8398 27.1269 10.8818 27.3599C11.0368 28.2409 11.2338 29.123 11.4618 29.983C11.5248 30.243 11.5968 30.502 11.6698 30.751C12.0635 32.1483 12.5343 33.5227 13.0798 34.8679C13.2358 35.2509 13.4018 35.6249 13.5798 35.9979C13.9428 36.8279 14.3468 37.6369 14.7798 38.4349C14.9458 38.7669 15.1318 39.088 15.3188 39.41C15.8478 40.333 16.4188 41.2349 17.0298 42.1099C17.3408 42.5459 17.6518 42.981 17.9738 43.41C18.2848 43.815 18.6058 44.2189 18.9278 44.6099C18.9442 44.621 18.9581 44.6354 18.9688 44.652C19.0518 44.766 19.1458 44.869 19.2388 44.983C19.5708 45.383 19.9228 45.772 20.2758 46.155C18.2305 43.1377 17.1392 39.5752 17.1438 35.9299V35.9199C15.3438 28.2049 15.1318 16.9949 21.8828 3.64893C21.9628 3.44793 22.0568 3.24802 22.1598 3.06403Z" fill="white"/>
</g>
<g id="Group_5" style="mix-blend-mode:multiply" opacity="0.1">
<path id="Vector_10" d="M64.5323 0.47102H53.9864L53.9855 0.475124L53.9831 0.478519L53.9795 0.480625L53.9754 0.481022V0.492023C53.7994 0.761023 53.6334 1.03113 53.4464 1.29213C53.0464 1.92513 52.6174 2.53713 52.1814 3.13813C51.0836 4.64533 49.8887 6.07932 48.6044 7.43102C48.3654 7.69002 48.1164 7.95012 47.8674 8.20912C47.8264 8.25012 47.7744 8.29202 47.7324 8.33302C47.3704 8.70702 47.0074 9.05912 46.6324 9.40112C46.2384 9.77512 45.8323 10.138 45.4324 10.501C45.0904 10.791 44.7384 11.092 44.3854 11.382C44.1574 11.569 43.9184 11.755 43.6804 11.942C43.4934 12.098 43.2964 12.2421 43.1094 12.3881C42.8194 12.6061 42.5294 12.824 42.2383 13.031C42.1384 13.104 42.0384 13.176 41.9484 13.238C41.5754 13.508 41.1914 13.7781 40.7974 14.0261C40.7516 14.0629 40.7031 14.0963 40.6524 14.126C40.2274 14.406 39.8014 14.6761 39.3664 14.9351C38.9824 15.1841 38.5994 15.412 38.2044 15.619C38.0594 15.713 37.9044 15.796 37.7484 15.879C37.3754 16.096 37.0024 16.304 36.6284 16.479C36.5874 16.5 36.5564 16.521 36.5144 16.541C36.0794 16.78 35.6334 16.998 35.1874 17.205C35.1664 17.205 35.1564 17.215 35.1354 17.226C34.8354 17.381 34.5354 17.5161 34.2354 17.6511C34.6354 17.6201 35.0444 17.6101 35.4484 17.6101H40.0384C49.1265 14.0517 57.2733 8.44863 63.8474 1.23513C64.0784 0.989126 64.3043 0.730021 64.5323 0.47102Z" fill="white"/>
</g>
<g id="Group_6" style="mix-blend-mode:screen" opacity="0.6">
<path id="Vector_11" d="M47.1779 50.5892C43.6161 54.8274 39.2389 58.3066 34.3063 60.8202C29.3737 63.3338 23.9862 64.8304 18.4639 65.2212C18.6189 65.2312 19.1059 65.2522 19.8429 65.2732C20.3962 65.2882 20.95 65.2742 21.5019 65.2312C22.2201 65.2098 22.9366 65.1477 23.6479 65.0452C24.0479 65.0032 24.4479 64.9452 24.8719 64.8892C25.2869 64.8062 25.7229 64.7232 26.1719 64.6402C27.0639 64.4742 27.9869 64.2152 28.9409 63.9462C29.8739 63.6242 30.8699 63.3652 31.8239 62.9402C32.7989 62.5562 33.7529 62.1002 34.7069 61.6402C35.6399 61.1222 36.5839 60.6342 37.4549 60.0642C38.3469 59.5252 39.1659 58.9032 39.9639 58.3222C40.7529 57.7102 41.4889 57.0982 42.1519 56.4872C42.7873 55.9208 43.3931 55.322 43.9669 54.6932C44.5169 54.1222 44.9839 53.5732 45.3879 53.0642C45.742 52.6426 46.0741 52.203 46.3829 51.7472C46.8509 51.0972 47.1209 50.6822 47.1779 50.5892Z" fill="white"/>
</g>
<g id="Group_7" style="mix-blend-mode:screen" opacity="0.6">
<path id="Vector_12" d="M53.9787 0.492153V0.481152C53.9167 0.544151 53.6467 0.82415 53.2327 1.29015C52.7657 1.80915 52.0917 2.55515 51.2927 3.44715C50.8787 3.88315 50.4427 4.34716 49.9757 4.84716C49.5087 5.34716 48.9907 5.83215 48.4937 6.37115C47.4357 7.40815 46.3057 8.49715 45.1337 9.53415C43.9617 10.5922 42.7337 11.5772 41.5977 12.5002C40.9977 12.9362 40.4567 13.4002 39.8977 13.8002C39.3387 14.2002 38.8297 14.5882 38.3527 14.9412C37.3877 15.6462 36.5787 16.2172 35.9877 16.6212C35.5527 16.9212 35.2617 17.1392 35.1377 17.2332C42.8865 13.5647 49.4241 7.75565 53.9787 0.492153Z" fill="white"/>
</g>
<g id="Group_8" style="mix-blend-mode:screen" opacity="0.6">
<path id="Vector_13" d="M10.2554 20.4954C10.2503 16.9606 10.7462 13.443 11.7284 10.0474V10.0064C11.7284 10.0064 11.4904 10.5354 11.1474 11.4994C10.6736 12.8269 10.3058 14.1898 10.0474 15.5754C9.66261 17.5463 9.4717 19.5502 9.47739 21.5584C9.46924 22.6907 9.52099 23.8226 9.6324 24.9494C9.7574 26.1004 9.92339 27.2724 10.1614 28.4234C10.3994 29.5744 10.7114 30.7154 11.0614 31.8234C11.2235 32.3756 11.4141 32.919 11.6324 33.4514C11.8324 33.9804 12.0464 34.4994 12.2754 35.0074C12.6925 35.9782 13.1667 36.9235 13.6954 37.8384C14.1501 38.6677 14.6509 39.471 15.1954 40.2444C15.6429 40.9045 16.1239 41.5414 16.6364 42.1524C17.0724 42.7124 17.5074 43.1584 17.8364 43.5414C18.4794 44.1954 18.8844 44.5784 18.9564 44.6414C13.3196 37.8591 10.2405 29.3143 10.2554 20.4954Z" fill="white"/>
</g>
<g id="Group_9" style="mix-blend-mode:multiply" opacity="0.3">
<path id="Vector_14" d="M70.0287 0.471569L35.4447 0.471569C27.1902 0.473269 19.1959 3.36007 12.8447 8.63257C13.8197 7.91757 14.8047 7.24357 15.8317 6.61057C16.8744 5.96627 17.9505 5.37777 19.0557 4.84757C19.9787 4.39157 20.9227 3.99757 21.8767 3.63457C22.0537 3.56157 22.2397 3.49957 22.4267 3.42657C23.5682 2.99977 24.7311 2.63267 25.9107 2.32657C27.0858 2.01557 28.2764 1.76657 29.4777 1.58057C30.6777 1.41457 31.8837 1.28067 33.0867 1.22766C34.2897 1.17467 35.4927 1.18557 36.7367 1.19657L40.4367 1.23767L47.8307 1.28967H55.2247C58.098 1.28967 60.9704 1.27227 63.8417 1.23767C65.6677 1.22767 67.4927 1.19657 69.3067 1.17557L69.2967 1.87567L69.1417 3.27557L68.8667 4.64757L68.4837 6.00657L67.9757 7.33357L67.3537 8.60857L66.6277 9.83257L65.7977 10.9936L64.8847 12.0826L63.8847 13.1096L62.8057 14.0536L61.6447 14.9036L60.3997 15.6506L59.0997 16.2936L57.7517 16.8326L56.3517 17.2576C60.2153 16.4617 63.686 14.357 66.1778 11.2989C68.6695 8.24067 70.0297 4.41637 70.0287 0.471569Z" fill="white"/>
</g>
<g id="Group_10" style="mix-blend-mode:multiply" opacity="0.3">
<path id="Vector_15" d="M70.8991 35.9151V27.3401H58.7351C60.7571 27.4741 62.7901 27.5471 64.8121 27.6401C66.6681 27.7231 68.5121 27.7851 70.3701 27.8401L70.2041 34.3941C70.1831 35.5761 70.1941 36.7271 70.1041 37.8681C70.0232 39.0151 69.8847 40.1572 69.6891 41.2901C69.5118 42.42 69.2694 43.5385 68.9631 44.6402C68.6677 45.7589 68.3111 46.8605 67.8951 47.9403C67.5321 49.0083 67.0241 50.0561 66.5671 51.1031C66.0181 52.1091 65.5411 53.1561 64.8981 54.1101C64.3281 55.1101 63.6431 56.0291 62.9791 56.9731C62.6471 57.4391 62.2641 57.8731 61.9111 58.3211C61.5597 58.7779 61.1824 59.2139 60.7811 59.6271C60.3871 60.0421 60.0031 60.4781 59.5991 60.8821L58.3441 62.0822C57.9441 62.4822 57.4731 62.8292 57.0371 63.2122C56.5921 63.5752 56.1661 63.9592 55.6891 64.2912L54.2891 65.3172L52.8271 66.2512C52.3401 66.5822 51.8271 66.8512 51.3271 67.1322C50.8271 67.4132 50.3211 67.7232 49.7921 67.9622C48.7441 68.4622 47.6921 68.9682 46.5871 69.3622C45.5301 69.8082 44.4201 70.1082 43.3311 70.4822C49.7168 69.0152 55.5727 65.8118 60.2521 61.2256C64.9314 56.6395 68.252 50.8491 69.8471 44.4942C70.5522 41.6893 70.9056 38.8074 70.8991 35.9151Z" fill="white"/>
</g>
</g>
</g>
</g>
</g>
<g id="Logo Shapes 41">
<g id="Clip path group_2">
<mask id="mask1_44_711" style="mask-type:luminance" maskUnits="userSpaceOnUse" x="56" y="27" width="56" height="68">
<g id="clip0_2">
<path id="Vector_16" d="M111.77 27.3459H56.75V94.5279H111.77V27.3459Z" fill="white"/>
</g>
</mask>
<g mask="url(#mask1_44_711)">
<g id="Group_11">
<path id="Vector_17" d="M111.77 54.878C111.772 57.2128 111.472 59.538 110.878 61.796C110.298 64.0108 109.448 66.1461 108.348 68.154C107.733 69.2693 107.037 70.3388 106.268 71.354C106.238 71.406 106.216 71.435 106.209 71.454L106.202 71.461C105.603 72.2512 104.963 73.0096 104.284 73.733C103.322 74.7563 102.281 75.7031 101.172 76.565C101.172 76.565 93.191 82.296 83.618 82.296L82.047 82.303L75.328 82.347V63.825H84.282C85.4611 63.8346 86.6293 63.5982 87.712 63.131C88.7794 62.6776 89.7505 62.0246 90.573 61.207C91.3933 60.3818 92.0448 59.4046 92.491 58.33C92.9606 57.2404 93.1967 56.0644 93.184 54.878C93.188 54.2764 93.131 53.676 93.014 53.086C93.0101 53.0792 93.0078 53.0717 93.007 53.064C92.8956 52.4962 92.7226 51.9422 92.491 51.412C91.5842 49.2491 89.8656 47.5279 87.704 46.618C86.6243 46.1503 85.4586 45.9142 84.282 45.925H75.328C75.3267 40.9981 73.369 36.2734 69.8852 32.7895C66.4015 29.3056 61.6769 27.3476 56.75 27.346H84.282C86.752 27.3399 89.2112 27.6724 91.591 28.334C93.885 28.974 96.0864 29.9088 98.14 31.115C98.878 31.55 99.593 32.022 100.287 32.524L100.345 32.56C103.453 34.8158 106.06 37.6912 108.001 41.005C109.206 43.0621 110.141 45.2659 110.782 47.562C111.443 49.9442 111.776 52.4057 111.77 54.878Z" fill="white"/>
<path id="Vector_18" d="M108.79 94.528H88.9062L85.7722 87.278L83.6152 82.293C93.1882 82.293 101.169 76.562 101.169 76.562L103.455 81.962L103.855 82.899C103.855 82.906 103.863 82.906 103.863 82.913L108.79 94.528Z" fill="white"/>
<path id="Vector_19" d="M75.328 45.9249V94.5249H56.75V27.3459C61.6769 27.3475 66.4015 29.3055 69.8852 32.7894C73.369 36.2733 75.3267 40.998 75.328 45.9249Z" fill="white"/>
<g id="Group_12" style="mix-blend-mode:multiply" opacity="0.16">
<path id="Vector_20" d="M75.328 45.9249C75.3267 40.998 73.369 36.2733 69.8852 32.7894C66.4015 29.3055 61.6769 27.3475 56.75 27.3459H73.573C77.327 30.8569 80.934 36.6099 81.826 45.9249H75.328Z" fill="white"/>
</g>
<g id="Group_13" style="mix-blend-mode:multiply" opacity="0.16">
<path id="Vector_21" d="M82.0471 63.825V82.2999L75.3281 82.344V63.825H82.0471Z" fill="white"/>
</g>
<g id="Group_14" style="mix-blend-mode:multiply" opacity="0.16">
<path id="Vector_22" d="M103.458 81.961C97.9558 84.8447 91.9527 86.6494 85.7722 87.278L83.6152 82.293C93.1882 82.293 101.169 76.562 101.169 76.562L103.458 81.961Z" fill="white"/>
</g>
<g id="Group_15" style="mix-blend-mode:multiply" opacity="0.25">
<path id="Vector_23" d="M111.77 54.8779C111.772 57.2127 111.472 59.538 110.878 61.7959C110.298 64.0107 109.448 66.146 108.348 68.1539C107.733 69.2692 107.038 70.3387 106.268 71.354C106.401 71.1399 106.725 70.6239 107.16 69.8349C107.955 68.3972 108.638 66.9004 109.203 65.3579C109.993 63.1989 110.535 60.9572 110.819 58.6759C110.967 57.398 111.036 56.1122 111.025 54.8259C111.012 53.4972 110.904 52.1711 110.701 50.8579C110.509 49.5445 110.218 48.2475 109.83 46.9779C109.456 45.7468 109.005 44.5401 108.481 43.3649C107.981 42.2644 107.42 41.193 106.799 40.1559C106.199 39.1749 105.575 38.2679 104.962 37.4639C103.965 36.1586 102.868 34.9332 101.68 33.7989C100.818 32.9649 100.287 32.5229 100.287 32.5229L100.345 32.5589C103.453 34.8147 106.06 37.6901 108.001 41.0039C109.206 43.061 110.141 45.2648 110.782 47.5609C111.443 49.9436 111.776 52.4053 111.77 54.8779Z" fill="white"/>
</g>
<g id="Group_16" style="mix-blend-mode:multiply" opacity="0.25">
<path id="Vector_24" d="M108.79 94.528H93.958C95.197 94.344 96.429 94.233 97.668 94.128C98.907 94.023 100.139 93.951 101.368 93.892C102.597 93.833 103.846 93.804 105.078 93.781L107.644 93.759C107.393 93.14 107.144 92.52 106.907 91.893C106.516 90.913 106.147 89.932 105.793 88.936C105.439 87.94 105.093 86.945 104.76 85.936C104.427 84.927 104.126 83.923 103.86 82.905L108.79 94.528Z" fill="white"/>
</g>
<g id="Group_17" style="mix-blend-mode:screen" opacity="0.7">
<path id="Vector_25" d="M57.524 60.9409C57.517 63.0409 57.509 65.1409 57.495 67.2029C57.481 69.2649 57.45 71.3029 57.428 73.2729C57.377 77.2109 57.295 80.8839 57.192 84.0329C57.008 90.3329 56.75 94.5279 56.75 94.5279V27.3459C56.75 27.3459 57.008 31.5459 57.192 37.8409C57.292 40.9909 57.377 44.6629 57.428 48.6019C57.45 50.5709 57.495 52.6069 57.495 54.6719C57.495 56.7369 57.515 58.8389 57.524 60.9409Z" fill="white"/>
</g>
<g id="Group_18" style="mix-blend-mode:multiply" opacity="0.25">
<path id="Vector_26" d="M93.5232 56.3239C93.4953 56.8753 93.4064 57.422 93.2582 57.9539C93.1772 58.2339 93.0732 58.5439 92.9772 58.8089C92.8655 59.1071 92.7352 59.398 92.5872 59.6799C92.2813 60.2783 91.905 60.8379 91.4662 61.3469C91.0121 61.87 90.5024 62.3421 89.9462 62.7549C89.3775 63.1528 88.7697 63.4916 88.1322 63.7659C87.5152 64.0273 86.8688 64.2129 86.2072 64.3189C85.5928 64.4183 84.9689 64.4455 84.3482 64.3999C83.7882 64.3709 83.2722 64.3189 82.7852 64.2669C80.8602 64.0829 79.5762 63.8249 79.5762 63.8249H84.2822C85.4613 63.8345 86.6295 63.5982 87.7122 63.1309C88.7796 62.6775 89.7507 62.0245 90.5732 61.2069C91.3935 60.3817 92.045 59.4045 92.4912 58.3299C92.9608 57.2403 93.1969 56.0643 93.1842 54.8779C93.1882 54.2763 93.1312 53.676 93.0142 53.0859C93.1322 53.3551 93.2262 53.6342 93.2952 53.9199C93.4891 54.7056 93.566 55.5157 93.5232 56.3239Z" fill="white"/>
</g>
<g id="Group_19" style="mix-blend-mode:screen" opacity="0.7">
<path id="Vector_27" d="M75.328 45.9249V94.5249C75.328 94.5249 75.262 93.3089 75.188 91.1839C75.114 89.0589 74.988 86.014 74.908 82.3709C74.808 78.7269 74.731 74.4709 74.679 69.9139C74.657 67.6349 74.635 65.2819 74.613 62.8849C74.591 60.4879 74.598 58.0619 74.591 55.6349C74.584 53.2079 74.605 50.7669 74.62 48.3779C74.613 47.1899 74.65 45.9779 74.613 44.8599C74.5609 43.7474 74.4029 42.6424 74.141 41.5599C73.6453 39.495 72.7968 37.5312 71.633 35.7549C69.6706 32.7793 66.8998 30.4254 63.646 28.9699C62.4907 28.4514 61.2841 28.0559 60.046 27.7899C59.2447 27.6174 58.4345 27.4892 57.619 27.4059C57.051 27.3689 56.749 27.3469 56.749 27.3469C61.6759 27.3485 66.4005 29.3065 69.8842 32.7904C73.368 36.2743 75.3257 40.999 75.327 45.9259L75.328 45.9249Z" fill="white"/>
</g>
</g>
</g>
</g>
</g>
</g>
</svg>
