<svg xmlns="http://www.w3.org/2000/svg" width="50" height="51" viewBox="0 0 50 51" fill="none">
  <mask id="mask0_127_218" style="mask-type:alpha" maskUnits="userSpaceOnUse" x="0" y="0" width="50" height="51">
    <rect y="0.846191" width="50" height="50" fill="#D9D9D9"/>
  </mask>
  <g mask="url(#mask0_127_218)">
    <path d="M11.25 41.6794C9.6875 40.1169 8.46354 38.3114 7.57813 36.2628C6.69271 34.2142 6.25 32.0961 6.25 29.9086C6.25 27.7211 6.66667 25.5597 7.5 23.4242C8.33333 21.2888 9.6875 19.2836 11.5625 17.4086C12.7778 16.1933 14.2795 15.1517 16.0677 14.2836C17.8559 13.4156 19.974 12.7298 22.4219 12.2263C24.8698 11.7229 27.6649 11.419 30.8073 11.3149C33.9497 11.2107 37.4653 11.3322 41.3542 11.6794C41.6319 15.36 41.7188 18.7454 41.6146 21.8357C41.5104 24.926 41.224 27.7124 40.7552 30.1951C40.2865 32.6777 39.6267 34.8479 38.776 36.7055C37.9254 38.5631 36.875 40.1169 35.625 41.3669C33.7847 43.2072 31.8316 44.5527 29.7656 45.4034C27.6997 46.2541 25.5903 46.6794 23.4375 46.6794C21.1806 46.6794 18.9757 46.2367 16.8229 45.3513C14.6701 44.4659 12.8125 43.2419 11.25 41.6794ZM17.0833 40.8461C18.0903 41.4364 19.1233 41.8617 20.1823 42.1222C21.2413 42.3826 22.3264 42.5128 23.4375 42.5128C25.0347 42.5128 26.6146 42.1916 28.1771 41.5492C29.7396 40.9069 31.2326 39.8739 32.6563 38.4503C33.2813 37.8253 33.9149 36.9485 34.5573 35.8201C35.1997 34.6916 35.7552 33.2159 36.224 31.393C36.6927 29.5701 37.0486 27.3652 37.2917 24.7784C37.5347 22.1916 37.5694 19.11 37.3958 15.5336C35.6944 15.4642 33.776 15.4381 31.6406 15.4555C29.5052 15.4729 27.3785 15.6378 25.2604 15.9503C23.1424 16.2628 21.1285 16.7663 19.2188 17.4607C17.309 18.1551 15.7465 19.11 14.5313 20.3253C12.9688 21.8878 11.8924 23.4329 11.3021 24.9607C10.7118 26.4885 10.4167 27.9642 10.4167 29.3878C10.4167 31.4364 10.8073 33.2333 11.5885 34.7784C12.3698 36.3235 13.0556 37.4086 13.6458 38.0336C15.1042 35.2558 17.0313 32.5909 19.4271 30.0388C21.8229 27.4867 24.6181 25.3947 27.8125 23.7628C25.3125 25.9503 23.1337 28.4242 21.276 31.1847C19.4184 33.9451 18.0208 37.1656 17.0833 40.8461Z" fill="#71825E"/>
  </g>
</svg>