<svg xmlns="http://www.w3.org/2000/svg" width="50" height="51" viewBox="0 0 50 51" fill="none">
  <mask id="mask0_127_230" style="mask-type:alpha" maskUnits="userSpaceOnUse" x="0" y="0" width="50" height="51">
    <rect y="0.846191" width="50" height="50" fill="#71825E"/>
  </mask>
  <g mask="url(#mask0_127_230)">
    <path d="M33.3333 27.9296C31.736 26.4713 30.1822 25.039 28.6718 23.6327C27.1614 22.2265 25.8246 20.8463 24.6614 19.4921C23.4982 18.1379 22.5694 16.8272 21.8749 15.5598C21.1805 14.2925 20.8333 13.0685 20.8333 11.8879C20.8333 9.94349 21.493 8.31155 22.8124 6.99211C24.1319 5.67266 25.7638 5.01294 27.7083 5.01294C28.8194 5.01294 29.861 5.24731 30.8333 5.71606C31.8055 6.18481 32.6388 6.81849 33.3333 7.61711C34.0277 6.81849 34.861 6.18481 35.8333 5.71606C36.8055 5.24731 37.8471 5.01294 38.9583 5.01294C40.9027 5.01294 42.5346 5.67266 43.8541 6.99211C45.1735 8.31155 45.8333 9.94349 45.8333 11.8879C45.8333 13.0685 45.486 14.2925 44.7916 15.5598C44.0971 16.8272 43.1683 18.1379 42.0051 19.4921C40.8419 20.8463 39.5138 22.2265 38.0208 23.6327C36.5277 25.039 34.9652 26.4713 33.3333 27.9296ZM33.3333 22.3046C35.3819 20.3602 37.2829 18.4244 39.0364 16.4973C40.7898 14.5702 41.6666 13.0338 41.6666 11.8879C41.6666 11.0893 41.4148 10.4383 40.9114 9.93481C40.4079 9.43134 39.7569 9.17961 38.9583 9.17961C38.4721 9.17961 38.0121 9.27509 37.578 9.46606C37.144 9.65704 36.7708 9.94349 36.4583 10.3254L33.3333 14.0754L30.2083 10.3254C29.8958 9.94349 29.5225 9.65704 29.0885 9.46606C28.6544 9.27509 28.1944 9.17961 27.7083 9.17961C26.9096 9.17961 26.2586 9.43134 25.7551 9.93481C25.2517 10.4383 24.9999 11.0893 24.9999 11.8879C24.9999 13.0338 25.8767 14.5702 27.6301 16.4973C29.3836 18.4244 31.2846 20.3602 33.3333 22.3046ZM29.1666 47.7213L14.5833 43.6588V46.6796H2.08325V23.7629H18.6458L31.5624 28.5546C32.7083 28.9713 33.6371 29.7004 34.3489 30.7421C35.0607 31.7838 35.4166 32.9296 35.4166 34.1796H39.5833C41.3194 34.1796 42.7951 34.7525 44.0103 35.8984C45.2256 37.0442 45.8333 38.5546 45.8333 40.4296V42.5129L29.1666 47.7213ZM6.24992 42.5129H10.4166V27.9296H6.24992V42.5129ZM29.0624 43.3463L41.4582 39.4921C41.3541 39.1102 41.1197 38.8237 40.7551 38.6327C40.3905 38.4418 39.9999 38.3463 39.5833 38.3463H29.5833C28.5069 38.3463 27.5346 38.2768 26.6666 38.1379C25.7985 37.9991 24.861 37.756 23.8541 37.4088L20.2603 36.1588L21.4583 32.2004L25.6249 33.5546C26.2499 33.7629 26.9791 33.9192 27.8124 34.0234C28.6458 34.1275 29.7916 34.1796 31.2499 34.1796C31.2499 33.7977 31.1371 33.4331 30.9114 33.0859C30.6857 32.7386 30.4166 32.5129 30.1041 32.4088L17.9166 27.9296H14.5833V39.3879L29.0624 43.3463Z" fill="#71825E"/>
  </g>
</svg>