<svg xmlns="http://www.w3.org/2000/svg" width="51" height="51" viewBox="0 0 51 51" fill="none">
  <mask id="mask0_127_224" style="mask-type:alpha" maskUnits="userSpaceOnUse" x="0" y="0" width="51" height="51">
    <rect x="0.5" y="0.846191" width="50" height="50" fill="#D9D9D9"/>
  </mask>
  <g mask="url(#mask0_127_224)">
    <path d="M19.2501 34.1796C20.3959 34.1796 21.3768 33.7716 22.1928 32.9557C23.0088 32.1397 23.4167 31.1588 23.4167 30.0129C23.4167 28.8671 23.0088 27.8862 22.1928 27.0702C21.3768 26.2543 20.3959 25.8463 19.2501 25.8463C18.1042 25.8463 17.1233 26.2543 16.3074 27.0702C15.4914 27.8862 15.0834 28.8671 15.0834 30.0129C15.0834 31.1588 15.4914 32.1397 16.3074 32.9557C17.1233 33.7716 18.1042 34.1796 19.2501 34.1796ZM31.7501 34.1796C32.8959 34.1796 33.8768 33.7716 34.6928 32.9557C35.5088 32.1397 35.9167 31.1588 35.9167 30.0129C35.9167 28.8671 35.5088 27.8862 34.6928 27.0702C33.8768 26.2543 32.8959 25.8463 31.7501 25.8463C30.6042 25.8463 29.6233 26.2543 28.8074 27.0702C27.9914 27.8862 27.5834 28.8671 27.5834 30.0129C27.5834 31.1588 27.9914 32.1397 28.8074 32.9557C29.6233 33.7716 30.6042 34.1796 31.7501 34.1796ZM25.5001 23.7629C26.6459 23.7629 27.6268 23.355 28.4428 22.539C29.2588 21.723 29.6667 20.7421 29.6667 19.5963C29.6667 18.4504 29.2588 17.4695 28.4428 16.6536C27.6268 15.8376 26.6459 15.4296 25.5001 15.4296C24.3542 15.4296 23.3733 15.8376 22.5574 16.6536C21.7414 17.4695 21.3334 18.4504 21.3334 19.5963C21.3334 20.7421 21.7414 21.723 22.5574 22.539C23.3733 23.355 24.3542 23.7629 25.5001 23.7629ZM25.5001 46.6796C22.6181 46.6796 19.9098 46.1327 17.3751 45.039C14.8404 43.9452 12.6355 42.4609 10.7605 40.5859C8.8855 38.7109 7.40112 36.506 6.30737 33.9713C5.21362 31.4366 4.66675 28.7282 4.66675 25.8463C4.66675 22.9643 5.21362 20.256 6.30737 17.7213C7.40112 15.1866 8.8855 12.9817 10.7605 11.1067C12.6355 9.23169 14.8404 7.74731 17.3751 6.65356C19.9098 5.55981 22.6181 5.01294 25.5001 5.01294C28.382 5.01294 31.0904 5.55981 33.6251 6.65356C36.1598 7.74731 38.3647 9.23169 40.2397 11.1067C42.1147 12.9817 43.599 15.1866 44.6928 17.7213C45.7865 20.256 46.3334 22.9643 46.3334 25.8463C46.3334 28.7282 45.7865 31.4366 44.6928 33.9713C43.599 36.506 42.1147 38.7109 40.2397 40.5859C38.3647 42.4609 36.1598 43.9452 33.6251 45.039C31.0904 46.1327 28.382 46.6796 25.5001 46.6796ZM25.5001 42.5129C30.1529 42.5129 34.0938 40.8984 37.323 37.6692C40.5522 34.44 42.1668 30.4991 42.1668 25.8463C42.1668 21.1935 40.5522 17.2525 37.323 14.0234C34.0938 10.7942 30.1529 9.17961 25.5001 9.17961C20.8473 9.17961 16.9063 10.7942 13.6772 14.0234C10.448 17.2525 8.83342 21.1935 8.83342 25.8463C8.83342 30.4991 10.448 34.44 13.6772 37.6692C16.9063 40.8984 20.8473 42.5129 25.5001 42.5129Z" fill="#71825E"/>
  </g>
</svg>