<svg width="19" height="20" viewBox="0 0 19 20" fill="none" xmlns="http://www.w3.org/2000/svg">
<path id="Vector" fill-rule="evenodd" clip-rule="evenodd" d="M5.981 0.553C6.06399 0.386919 6.19158 0.247222 6.34947 0.149552C6.50737 0.0518831 6.68934 9.91486e-05 6.875 0H12.875C13.0607 9.91486e-05 13.2426 0.0518831 13.4005 0.149552C13.5584 0.247222 13.686 0.386919 13.769 0.553L15.493 4H17.875C18.1402 4 18.3946 4.10536 18.5821 4.29289C18.7696 4.48043 18.875 4.73478 18.875 5C18.875 5.26522 18.7696 5.51957 18.5821 5.70711C18.3946 5.89464 18.1402 6 17.875 6H16.875V17C16.875 17.7956 16.5589 18.5587 15.9963 19.1213C15.4337 19.6839 14.6706 20 13.875 20H5.875C5.07935 20 4.31629 19.6839 3.75368 19.1213C3.19107 18.5587 2.875 17.7956 2.875 17V6H1.875C1.60978 6 1.35543 5.89464 1.16789 5.70711C0.980357 5.51957 0.875 5.26522 0.875 5C0.875 4.73478 0.980357 4.48043 1.16789 4.29289C1.35543 4.10536 1.60978 4 1.875 4H4.257L5.981 0.553ZM12.257 2L13.257 4H6.493L7.493 2H12.257ZM8.875 9C8.875 8.73478 8.76964 8.48043 8.58211 8.29289C8.39457 8.10536 8.14022 8 7.875 8C7.60978 8 7.35543 8.10536 7.16789 8.29289C6.98036 8.48043 6.875 8.73478 6.875 9V15C6.875 15.2652 6.98036 15.5196 7.16789 15.7071C7.35543 15.8946 7.60978 16 7.875 16C8.14022 16 8.39457 15.8946 8.58211 15.7071C8.76964 15.5196 8.875 15.2652 8.875 15V9ZM12.875 9C12.875 8.73478 12.7696 8.48043 12.5821 8.29289C12.3946 8.10536 12.1402 8 11.875 8C11.6098 8 11.3554 8.10536 11.1679 8.29289C10.9804 8.48043 10.875 8.73478 10.875 9V15C10.875 15.2652 10.9804 15.5196 11.1679 15.7071C11.3554 15.8946 11.6098 16 11.875 16C12.1402 16 12.3946 15.8946 12.5821 15.7071C12.7696 15.5196 12.875 15.2652 12.875 15V9Z" fill="black"/>
</svg>
